<svg width="343" height="46" viewBox="0 0 343 46" fill="none" xmlns="http://www.w3.org/2000/svg">
<rect width="343" height="46" rx="10" fill="#F46F17"/>
<path d="M73.5306 28H75.2106V18.2H67.3706V28H69.0506V19.684H73.5306V28ZM79.9734 28.126C81.9334 28.126 82.9134 27.146 83.1934 25.83H81.5134C81.3734 26.292 80.9674 26.698 79.9734 26.698C78.9794 26.698 78.3914 26.208 78.3074 25.046H83.2634V24.5C83.2634 22.19 82.0034 20.874 79.9734 20.874C77.9714 20.874 76.6834 22.162 76.6834 24.276V24.724C76.6834 26.838 77.9714 28.126 79.9734 28.126ZM79.9734 22.302C80.9254 22.302 81.4854 22.722 81.6114 23.758H78.3354C78.4754 22.75 79.0354 22.302 79.9734 22.302ZM88.3319 28.126C89.9279 28.126 91.1039 26.95 91.1039 24.724V24.276C91.1039 22.036 89.9419 20.874 88.3319 20.874C87.3519 20.874 86.5819 21.224 86.0919 21.952L85.9379 21H84.6639V30.8H86.2879V27.3C86.7779 27.86 87.4779 28.126 88.3319 28.126ZM87.8419 26.614C86.9459 26.614 86.2879 25.956 86.2879 24.724V24.192C86.3159 23.016 86.9599 22.386 87.8419 22.386C88.7939 22.386 89.3959 22.988 89.3959 24.276V24.724C89.3959 26.04 88.8219 26.614 87.8419 26.614ZM95.3679 28.126C97.3279 28.126 98.3079 27.146 98.5879 25.83H96.9079C96.7679 26.292 96.3619 26.698 95.3679 26.698C94.3739 26.698 93.7859 26.208 93.7019 25.046H98.6579V24.5C98.6579 22.19 97.3979 20.874 95.3679 20.874C93.3659 20.874 92.0779 22.162 92.0779 24.276V24.724C92.0779 26.838 93.3659 28.126 95.3679 28.126ZM95.3679 22.302C96.3199 22.302 96.8799 22.722 97.0059 23.758H93.7299C93.8699 22.75 94.4299 22.302 95.3679 22.302ZM104.734 28H106.358V21H104.314L102.312 24.64L101.682 25.942V21H100.058V28H102.102L104.104 24.36L104.734 23.058V28ZM103.208 20.146C104.496 20.146 105.238 19.404 105.238 18.2H104.006C104.006 18.872 103.628 19.194 103.208 19.194C102.76 19.194 102.438 18.872 102.438 18.2H101.178C101.178 19.404 101.92 20.146 103.208 20.146ZM107.48 22.428H109.608V28H111.232V22.428H113.36V21H107.48V22.428ZM119.158 28H120.782V21H118.738L116.736 24.64L116.106 25.942V21H114.482V28H116.526L118.528 24.36L119.158 23.058V28ZM131.185 29.82H132.753V26.6H131.913V21H126.719V23.1C126.719 24.99 126.425 25.928 126.005 26.6H125.263V29.82H126.831V28H131.185V29.82ZM128.287 23.1V22.428H130.289V26.6H127.699C127.993 25.998 128.287 25.074 128.287 23.1ZM136.741 28.126C138.813 28.126 140.101 26.838 140.101 24.724V24.276C140.101 22.134 138.841 20.874 136.741 20.874C134.669 20.874 133.381 22.162 133.381 24.276V24.724C133.381 26.866 134.641 28.126 136.741 28.126ZM136.741 26.614C135.719 26.614 135.089 25.984 135.089 24.724V24.276C135.089 22.988 135.691 22.386 136.741 22.386C137.763 22.386 138.393 23.016 138.393 24.276V24.724C138.393 26.012 137.791 26.614 136.741 26.614ZM149.198 28H151.158L148.666 24.304L150.878 21H149.002L147.322 23.646H146.622V21H144.998V28H146.622V25.074H147.322L149.198 28ZM154.801 28.126C156.873 28.126 158.161 26.838 158.161 24.724V24.276C158.161 22.134 156.901 20.874 154.801 20.874C152.729 20.874 151.441 22.162 151.441 24.276V24.724C151.441 26.866 152.701 28.126 154.801 28.126ZM154.801 26.614C153.779 26.614 153.149 25.984 153.149 24.724V24.276C153.149 22.988 153.751 22.386 154.801 22.386C155.823 22.386 156.453 23.016 156.453 24.276V24.724C156.453 26.012 155.851 26.614 154.801 26.614ZM162.596 26.39H164.22L165.088 24.36L165.634 23.016V28H167.258V21H165.018L163.436 24.654L161.882 21H159.558V28H161.182V23.016L161.728 24.36L162.596 26.39ZM168.724 21.84H170.404V18.2H168.724V21.84ZM177.659 28.126C179.535 28.126 180.837 26.824 180.837 24.724V24.276C180.837 22.148 179.563 20.874 177.659 20.874C175.951 20.874 174.761 21.952 174.565 23.716H173.501V21H171.877V28H173.501V25.144H174.551C174.705 27.02 175.937 28.126 177.659 28.126ZM177.659 26.614C176.819 26.614 176.245 26.04 176.245 24.724V24.276C176.245 22.932 176.791 22.386 177.659 22.386C178.555 22.386 179.129 22.96 179.129 24.276V24.724C179.129 26.068 178.583 26.614 177.659 26.614ZM186.916 28H188.54V21H186.916V23.716H183.864V21H182.24V28H183.864V25.144H186.916V28ZM190.431 28H192.055V21H190.431V28ZM191.243 20.16C191.817 20.16 192.293 19.698 192.293 19.11C192.293 18.522 191.817 18.06 191.243 18.06C190.655 18.06 190.193 18.522 190.193 19.11C190.193 19.698 190.655 20.16 191.243 20.16ZM193.243 22.428H195.371V28H196.995V22.428H199.123V21H193.243V22.428ZM200.316 28H201.94V21H200.316V28ZM201.128 20.16C201.702 20.16 202.178 19.698 202.178 19.11C202.178 18.522 201.702 18.06 201.128 18.06C200.54 18.06 200.078 18.522 200.078 19.11C200.078 19.698 200.54 20.16 201.128 20.16ZM208.238 30.8H209.918L213.628 21H211.948L210.156 26.012L208.252 21H206.488L209.302 28L208.238 30.8ZM217.401 19.684H220.411V28H222.091V19.684H225.101V18.2H217.401V19.684ZM227.137 28.126C229.097 28.126 230.077 27.146 230.357 25.83H228.677C228.537 26.292 228.131 26.698 227.137 26.698C226.143 26.698 225.555 26.208 225.471 25.046H230.427V24.5C230.427 22.19 229.167 20.874 227.137 20.874C225.135 20.874 223.847 22.162 223.847 24.276V24.724C223.847 26.838 225.135 28.126 227.137 28.126ZM227.137 22.302C228.089 22.302 228.649 22.722 228.775 23.758H225.499C225.639 22.75 226.199 22.302 227.137 22.302ZM230.921 28.126H231.131C232.769 28.126 233.805 27.16 233.805 24.304V22.428H235.877V28H237.501V21H232.181V24.304C232.181 26.138 231.635 26.614 231.131 26.614H230.921V28.126ZM242.19 28.126C244.15 28.126 245.13 27.146 245.41 25.83H243.73C243.59 26.292 243.184 26.698 242.19 26.698C241.196 26.698 240.608 26.208 240.524 25.046H245.48V24.5C245.48 22.19 244.22 20.874 242.19 20.874C240.188 20.874 238.9 22.162 238.9 24.276V24.724C238.9 26.838 240.188 28.126 242.19 28.126ZM242.19 22.302C243.142 22.302 243.702 22.722 243.828 23.758H240.552C240.692 22.75 241.252 22.302 242.19 22.302ZM246.881 28H248.505V22.428H251.781V21H246.881V28ZM256.564 28.126C258.16 28.126 259.336 26.95 259.336 24.724V24.276C259.336 22.036 258.174 20.874 256.564 20.874C255.584 20.874 254.814 21.224 254.324 21.952L254.17 21H252.896V30.8H254.52V27.3C255.01 27.86 255.71 28.126 256.564 28.126ZM256.074 26.614C255.178 26.614 254.52 25.956 254.52 24.724V24.192C254.548 23.016 255.192 22.386 256.074 22.386C257.026 22.386 257.628 22.988 257.628 24.276V24.724C257.628 26.04 257.054 26.614 256.074 26.614ZM262.55 28.126C263.53 28.126 264.328 27.734 264.818 27.034L264.986 28H266.26V23.24C266.26 21.812 265.322 20.874 263.46 20.874C261.5 20.874 260.59 21.784 260.52 23.03H262.284C262.354 22.54 262.676 22.218 263.46 22.218C264.286 22.218 264.636 22.568 264.636 23.24V23.66H263.46C261.122 23.66 260.24 24.542 260.24 26.012C260.24 27.328 261.038 28.126 262.55 28.126ZM262.83 26.782C262.27 26.782 261.948 26.46 261.948 25.956C261.948 25.326 262.354 24.92 263.46 24.92H264.636V25.13C264.636 26.012 263.866 26.782 262.83 26.782ZM271.042 26.39H272.666L273.534 24.36L274.08 23.016V28H275.704V21H273.464L271.882 24.654L270.328 21H268.004V28H269.628V23.016L270.174 24.36L271.042 26.39Z" fill="white"/>
</svg>
